<?xml version="1.0" encoding="UTF-8"?>
<svg version="1.1" xmlns="http://www.w3.org/2000/svg" width="64" height="64">
<path d="M0 0 C0.7027002 -0.00191345 1.40540039 -0.0038269 2.12939453 -0.00579834 C3.61556354 -0.00715975 5.10174445 -0.00346632 6.58789062 0.00488281 C8.86615646 0.01558346 11.14363377 0.00498661 13.421875 -0.0078125 C14.86458508 -0.0064909 16.30729466 -0.00392849 17.75 0 C19.06742188 0.00225586 20.38484375 0.00451172 21.7421875 0.00683594 C24.875 0.265625 24.875 0.265625 26.875 2.265625 C27.11550903 4.8598938 27.11550903 4.8598938 27.10205078 8.18408203 C27.10189972 9.42521759 27.10174866 10.66635315 27.10159302 11.94509888 C27.091379 13.3045467 27.080947 14.6639929 27.0703125 16.0234375 C27.06658284 17.41063229 27.06373565 18.79782971 27.06173706 20.18502808 C27.05409684 23.83802551 27.03444516 27.49086417 27.0123291 31.14379883 C26.99187896 34.87058362 26.98273713 38.59739404 26.97265625 42.32421875 C26.95119951 49.63809325 26.91705903 56.95183689 26.875 64.265625 C22.02438689 63.66556014 18.85585388 62.86791271 14.6875 60.328125 C11.01688522 58.5358524 9.62572782 58.02913199 5.67578125 59.2734375 C2.50219607 60.90104728 2.50219607 60.90104728 -0.3984375 62.77734375 C-3.30949686 64.36633174 -4.86756249 64.66273311 -8.125 64.265625 C-9.88989252 62.50073248 -9.26178359 59.97667642 -9.27026367 57.58422852 C-9.27664352 56.36949356 -9.28302338 55.15475861 -9.28959656 53.9032135 C-9.29112513 52.56698649 -9.29223914 51.23075894 -9.29296875 49.89453125 C-9.29617973 48.53311629 -9.29954368 47.17170169 -9.30305481 45.81028748 C-9.30905216 42.95286255 -9.3108941 40.09546789 -9.31030273 37.23803711 C-9.31020109 33.57138249 -9.32385258 29.90492144 -9.34107494 26.23831272 C-9.35217819 23.42538049 -9.35422246 20.61249529 -9.35369301 17.79954338 C-9.35487569 16.44751252 -9.35931353 15.09548053 -9.36702538 13.74347115 C-9.37679073 11.85447799 -9.37269195 9.96542839 -9.36791992 8.07641602 C-9.36934494 7.000215 -9.37076996 5.92401398 -9.37223816 4.81520081 C-8.81752193 -0.90515841 -4.75482647 0.00814183 0 0 Z " fill="#FFFEFE" transform="translate(23.125,-0.265625)"/>
</svg>
